<svg width="130" height="36" viewBox="0 0 130 36" fill="none" xmlns="http://www.w3.org/2000/svg">
<path d="M30.9619 8.42969V17.2197L15.4805 25.4326L0 17.2197V8.42969L15.4805 0L30.9619 8.42969ZM8.28711 10.9375V15.0215L15.4961 18.8369L22.7051 15.0215V10.9375L15.4961 7.02148L8.28711 10.9375Z" fill="#FF0000"/>
<path d="M15.5 29.149L31 20.9482V27.6527L15.5 35.8535L0 27.6527V20.9482L15.5 29.149Z" fill="#FF0000"/>
<path d="M46.81 20.8067L50.55 10.0267H54.84L49.01 25.4267H44.61L38.78 10.0267H43.07L46.81 20.8067ZM57.1423 25.4267H52.8523L58.6823 10.0267H63.0823L68.9123 25.4267H64.6223L63.6323 22.6767H58.1323L57.1423 25.4267ZM59.1223 19.8167H62.6423L60.8823 14.6467L59.1223 19.8167ZM73.9714 22.3467H82.0014V25.4267H70.0114V10.0267H73.9714V22.3467ZM93.4466 14.2067C93.4466 13.3267 93.0066 12.8867 92.1266 12.8867H88.3866C87.5066 12.8867 87.0666 13.3267 87.0666 14.2067V21.2467C87.0666 22.1267 87.5066 22.5667 88.3866 22.5667H92.1266C93.0066 22.5667 93.4466 22.1267 93.4466 21.2467V14.2067ZM97.4066 21.2467C97.4066 22.7867 97.0546 23.9087 96.3506 24.6127C95.6612 25.3021 94.5466 25.6467 93.0066 25.6467H87.5066C85.9666 25.6467 84.8446 25.3021 84.1406 24.6127C83.4512 23.9087 83.1066 22.7867 83.1066 21.2467V14.2067C83.1066 12.6667 83.4512 11.5521 84.1406 10.8627C84.8446 10.1587 85.9666 9.80673 87.5066 9.80673H93.0066C94.5466 9.80673 95.6612 10.1587 96.3506 10.8627C97.0546 11.5521 97.4066 12.6667 97.4066 14.2067V21.2467ZM99.6169 10.0267H108.857C110.397 10.0267 111.512 10.3787 112.201 11.0827C112.905 11.7721 113.257 12.8867 113.257 14.4267V16.4067C113.257 17.6241 113.052 18.5701 112.641 19.2447C112.245 19.9194 111.607 20.3667 110.727 20.5867L113.477 25.4267H109.187L106.657 20.8067H103.577V25.4267H99.6169V10.0267ZM109.297 14.4267C109.297 13.5467 108.857 13.1067 107.977 13.1067H103.577V17.7267H107.977C108.857 17.7267 109.297 17.2867 109.297 16.4067V14.4267ZM113.691 10.0267H117.871L121.501 17.5067L125.131 10.0267H129.311L123.481 21.3567V25.4267H119.521V21.3567L113.691 10.0267Z" fill="black"/>
</svg>
